<?xml version="1.0" standalone="no"?><!DOCTYPE svg PUBLIC "-//W3C//DTD SVG 1.1//EN" "http://www.w3.org/Graphics/SVG/1.1/DTD/svg11.dtd"><svg t="1711019676698" class="icon" viewBox="0 0 1024 1024" version="1.1" xmlns="http://www.w3.org/2000/svg" p-id="6957" xmlns:xlink="http://www.w3.org/1999/xlink" width="200" height="200"><path d="M512 37.7344l22.272 23.7056 6.8608 6.144 5.9904 4.8128 7.7312 5.7856 9.5232 6.5536 5.376 3.4816 12.1856 7.3216c47.9232 27.5456 132.5056 61.3376 259.328 61.3376 8.0896 0 16.384-0.1024 24.832-0.4096l29.8496-1.024v439.1936l-0.3584 12.544-0.7168 12.8512-1.2288 13.2608-0.8192 6.7072-2.048 13.7216-2.6624 13.9264-3.4304 14.2336c-25.9584 97.8944-107.1616 211.456-344.6272 305.0496l-28.1088 10.752-10.3936-3.8912c-251.136-94.9248-335.7184-211.6608-362.2912-311.9104l-3.4304-14.2336-2.7136-13.9264-2.048-13.7216-1.4336-13.3632a377.3952 377.3952 0 0 1-0.512-6.6048l-0.768-12.8512-0.3584-12.544V155.4432l29.8496 1.024c119.6032 3.9936 203.9296-21.1968 257.792-46.7968l15.2064-7.6288c4.8128-2.56 9.2672-5.0176 13.4656-7.4752l11.6736-7.168 9.9328-6.7072 8.192-6.0416 9.216-7.3728 5.4784-4.9152 1.8432-1.8432L512 37.7344z m0.0512 104.448l-5.9904 4.352c-21.0432 14.336-46.8992 28.672-77.7728 41.5744-59.4432 24.9856-128.3584 40.7552-206.7456 44.6464l-16.8448 0.512L204.8 593.7152c1.6384 127.0784 70.3488 225.4336 290.2528 315.0848l16.896 6.656c231.1168-90.4704 303.872-188.672 307.0976-317.6448l0.1024-9.216V233.2672l-18.9952-0.7168c-80.5376-4.3008-150.784-21.1968-210.8416-47.5136l-14.7968-6.7584a446.208 446.208 0 0 1-55.0912-31.0784l-7.3728-5.12zM672.1536 353.28l54.272 54.272-263.8336 263.8848-161.5872-161.5872 54.3232-54.272 107.2128 107.2128L672.1536 353.28z" fill="#80BA3F" p-id="6958"></path></svg>